<svg xmlns="http://www.w3.org/2000/svg" viewBox="0 0 2560 640"><style>.back{fill:transparent}.text,.logo{fill:#e6edf3}</style>
<path class="back" d="M0 0h2560v640H0z"/>
<path class="logo">
<animate repeatCount="indefinite" fill="freeze" attributeName="d" dur="5s"
            values="M2193.38 457.52c-28.1-2.5-33.37-34.22-13.48-42.48 33.15-13.77 83.25 25.67 93.14-24.22 8.36-42.15-50.77-44.37-76.4-66.88-50.52-39.97-28.68-130.67 46.26-127.48 0 0-.46-.04 0 0 24.82 2.1 194.9-18.02 179.34 21.12-2.77 6.96-9.72 11.15-16.96 10.54-57.5-4.86-80.5 15.39-84.07 70.94-.58 9.09 5.59 17.19 14.28 18.61 30.25 4.93 94.35-8 94.36 4.71 14.02 176.36-29.97 127.86-158.27 128.42-1.4 0-2.86.08-4.26.2l-73.94 6.52z;
            
            M2193.38 457.52c-28.1-2.5-33.37-34.22-13.48-42.48 33.15-13.77 86.71 26.23 93.14-24.22 5.11-40.04-50.71-44.44-76.4-66.88-47.82-41.77-28.68-130.67 46.26-127.48 0 0-.46-.04 0 0 24.82 2.1 194.9-18.02 179.34 21.12-2.77 6.96-9.72 11.15-16.96 10.54-57.5-4.86-84.49 15.52-84.07 70.94.07 9.11 5.81 16.2 14.28 18.61 30.02 8.52 94.35-8 94.36 4.71 14.02 176.36-29.97 127.86-158.27 128.42-1.4 0-2.86.08-4.26.2l-73.94 6.52z;

            M2193.38 457.52c-28.1-2.5-33.37-34.22-13.48-42.48 33.15-13.77 83.25 25.67 93.14-24.22 8.36-42.15-50.77-44.37-76.4-66.88-50.52-39.97-28.68-130.67 46.26-127.48 0 0-.46-.04 0 0 24.82 2.1 194.9-18.02 179.34 21.12-2.77 6.96-9.72 11.15-16.96 10.54-57.5-4.86-80.5 15.39-84.07 70.94-.58 9.09 5.59 17.19 14.28 18.61 30.25 4.93 94.35-8 94.36 4.71 14.02 176.36-29.97 127.86-158.27 128.42-1.4 0-2.86.08-4.26.2l-73.94 6.52z"/>
</path>
<path class="text" d="M128.22 330.08v-126h17.64v126h-17.64zm14.76-56.7v-16.2h76.32v16.2h-76.32zm70.74 56.7v-126h17.64v126h-17.64zM268.98 221c-2.76 0-5.16-1.05-7.2-3.15-2.04-2.1-3.06-4.53-3.06-7.29s1.02-5.31 3.06-7.29c2.04-1.98 4.44-2.97 7.2-2.97s5.31.99 7.29 2.97 2.97 4.41 2.97 7.29-.99 5.19-2.97 7.29c-1.98 2.1-4.41 3.15-7.29 3.15zm-8.64 109.08v-90h17.1v90h-17.1zM297.24 350.78l10.44-39.24h18.54l-15.12 39.24h-13.86zM392.82 330.08v-126h17.64v126h-17.64zM438.9 244.4l-1.62-43.2h16.56l-1.62 43.2H438.9zM476.52 330.08v-90h16.02l.72 12.42c2.88-4.8 6.48-8.43 10.8-10.89 4.32-2.46 9.3-3.69 14.94-3.69 7.2 0 13.32 1.65 18.36 4.95 5.04 3.3 8.7 8.31 10.98 15.03 2.64-6.48 6.36-11.43 11.16-14.85s10.5-5.13 17.1-5.13c10.2 0 18.18 3.33 23.94 9.99 5.76 6.66 8.58 16.89 8.46 30.69v51.48h-16.92V284c0-8.16-.87-14.37-2.61-18.63-1.74-4.26-4.05-7.23-6.93-8.91-2.88-1.68-6.24-2.58-10.08-2.7-6.72 0-11.91 2.58-15.57 7.74s-5.49 12.42-5.49 21.78v46.8h-17.1V284c0-8.16-.84-14.37-2.52-18.63-1.68-4.26-3.99-7.23-6.93-8.91-2.94-1.68-6.33-2.58-10.17-2.7-6.72 0-11.91 2.58-15.57 7.74s-5.49 12.42-5.49 21.78v46.8h-17.1zM719.16 332.24c-6.6 0-12.63-.78-18.09-2.34-5.46-1.56-10.26-3.72-14.4-6.48-4.14-2.76-7.56-5.85-10.26-9.27s-4.59-6.99-5.67-10.71l20.52-6.3c1.56 4.44 4.62 8.34 9.18 11.7 4.56 3.36 10.2 5.1 16.92 5.22 7.8 0 13.98-1.62 18.54-4.86 4.56-3.24 6.84-7.5 6.84-12.78 0-4.8-1.92-8.73-5.76-11.79-3.84-3.06-9-5.43-15.48-7.11l-15.48-3.96c-5.88-1.56-11.19-3.84-15.93-6.84s-8.46-6.78-11.16-11.34c-2.7-4.56-4.05-9.96-4.05-16.2 0-11.76 3.84-20.91 11.52-27.45 7.68-6.54 18.66-9.81 32.94-9.81 8.04 0 15.09 1.23 21.15 3.69 6.06 2.46 11.07 5.82 15.03 10.08 3.96 4.26 6.9 9.09 8.82 14.49l-20.16 6.48c-1.8-4.8-4.92-8.76-9.36-11.88-4.44-3.12-9.96-4.68-16.56-4.68s-12.21 1.62-16.11 4.86c-3.9 3.24-5.85 7.74-5.85 13.5 0 4.68 1.53 8.31 4.59 10.89 3.06 2.58 7.23 4.53 12.51 5.85l15.48 3.78c11.28 2.76 20.04 7.5 26.28 14.22 6.24 6.72 9.36 14.16 9.36 22.32 0 7.2-1.74 13.56-5.22 19.08-3.48 5.52-8.61 9.84-15.39 12.96-6.78 3.12-15.03 4.68-24.75 4.68zM812.76 332.24c-10.8 0-19.17-2.4-25.11-7.2-5.94-4.8-8.91-11.58-8.91-20.34 0-9.36 3.15-16.5 9.45-21.42 6.3-4.92 15.09-7.38 26.37-7.38h24.12v15.48h-17.64c-8.04 0-13.68 1.11-16.92 3.33-3.24 2.22-4.86 5.37-4.86 9.45 0 3.48 1.41 6.21 4.23 8.19 2.82 1.98 6.75 2.97 11.79 2.97 4.56 0 8.52-1.02 11.88-3.06 3.36-2.04 5.97-4.74 7.83-8.1 1.86-3.36 2.79-7.14 2.79-11.34h5.94c0 12.24-2.46 21.87-7.38 28.89s-12.78 10.53-23.58 10.53zm25.92-2.16l-.9-16.92v-29.34c0-6.12-.63-11.25-1.89-15.39-1.26-4.14-3.3-7.32-6.12-9.54-2.82-2.22-6.57-3.33-11.25-3.33-4.32 0-8.1.9-11.34 2.7-3.24 1.8-6 4.62-8.28 8.46l-17.64-6.48c1.92-3.96 4.47-7.65 7.65-11.07 3.18-3.42 7.2-6.15 12.06-8.19 4.86-2.04 10.71-3.06 17.55-3.06 8.76 0 16.08 1.71 21.96 5.13 5.88 3.42 10.23 8.31 13.05 14.67 2.82 6.36 4.23 14.04 4.23 23.04l-.54 49.32h-18.54zM918.24 332.24c-8.76 0-16.53-2.01-23.31-6.03-6.78-4.02-12.12-9.57-16.02-16.65-3.9-7.08-5.85-15.24-5.85-24.48s1.98-17.4 5.94-24.48c3.96-7.08 9.39-12.63 16.29-16.65 6.9-4.02 14.79-6.03 23.67-6.03 8.04 0 15.3 2.07 21.78 6.21 6.48 4.14 11.61 10.11 15.39 17.91 3.78 7.8 5.67 17.1 5.67 27.9h-70.74l2.7-2.52c0 5.52 1.2 10.29 3.6 14.31 2.4 4.02 5.58 7.11 9.54 9.27s8.34 3.24 13.14 3.24c5.52 0 10.08-1.23 13.68-3.69 3.6-2.46 6.42-5.67 8.46-9.63l17.82 7.56c-2.52 4.8-5.73 9-9.63 12.6-3.9 3.6-8.52 6.36-13.86 8.28-5.34 1.92-11.43 2.88-18.27 2.88zm-23.22-55.26l-2.88-2.52h50.76l-2.7 2.52c0-4.92-1.08-8.97-3.24-12.15-2.16-3.18-4.89-5.58-8.19-7.2s-6.75-2.43-10.35-2.43-7.2.81-10.8 2.43c-3.6 1.62-6.6 4.02-9 7.2-2.4 3.18-3.6 7.23-3.6 12.15zM1017.42 332.24c-8.76 0-16.53-2.01-23.31-6.03-6.78-4.02-12.12-9.57-16.02-16.65-3.9-7.08-5.85-15.24-5.85-24.48s1.98-17.4 5.94-24.48c3.96-7.08 9.39-12.63 16.29-16.65 6.9-4.02 14.79-6.03 23.67-6.03 8.04 0 15.3 2.07 21.78 6.21 6.48 4.14 11.61 10.11 15.39 17.91 3.78 7.8 5.67 17.1 5.67 27.9h-70.74l2.7-2.52c0 5.52 1.2 10.29 3.6 14.31 2.4 4.02 5.58 7.11 9.54 9.27s8.34 3.24 13.14 3.24c5.52 0 10.08-1.23 13.68-3.69 3.6-2.46 6.42-5.67 8.46-9.63l17.82 7.56c-2.52 4.8-5.73 9-9.63 12.6-3.9 3.6-8.52 6.36-13.86 8.28-5.34 1.92-11.43 2.88-18.27 2.88zm-23.22-55.26l-2.88-2.52h50.76l-2.7 2.52c0-4.92-1.08-8.97-3.24-12.15-2.16-3.18-4.89-5.58-8.19-7.2s-6.75-2.43-10.35-2.43-7.2.81-10.8 2.43c-3.6 1.62-6.6 4.02-9 7.2-2.4 3.18-3.6 7.23-3.6 12.15zM1112.1 332.24c-8.16 0-15.27-1.95-21.33-5.85-6.06-3.9-10.8-9.39-14.22-16.47-3.42-7.08-5.13-15.36-5.13-24.84s1.71-17.91 5.13-24.93 8.16-12.48 14.22-16.38c6.06-3.9 13.17-5.85 21.33-5.85 7.56 0 14.07 1.95 19.53 5.85 5.46 3.9 9.63 9.36 12.51 16.38 2.88 7.02 4.32 15.33 4.32 24.93s-1.44 17.76-4.32 24.84c-2.88 7.08-7.05 12.57-12.51 16.47-5.46 3.9-11.97 5.85-19.53 5.85zm5.04-18.36c4.56 0 8.61-1.23 12.15-3.69 3.54-2.46 6.3-5.85 8.28-10.17s2.97-9.3 2.97-14.94-.99-10.62-2.97-14.94-4.74-7.68-8.28-10.08c-3.54-2.4-7.65-3.6-12.33-3.6s-9.06 1.2-12.78 3.6c-3.72 2.4-6.63 5.76-8.73 10.08-2.1 4.32-3.21 9.3-3.33 14.94.12 5.64 1.23 10.62 3.33 14.94s5.04 7.71 8.82 10.17c3.78 2.46 8.07 3.69 12.87 3.69zm24.3 16.2l-.9-16.74V204.08h19.98v126h-19.08zM1287.78 332.24c-12.72 0-24.03-2.79-33.93-8.37s-17.67-13.26-23.31-23.04c-5.64-9.78-8.46-20.97-8.46-33.57s2.82-24.15 8.46-33.93c5.64-9.78 13.41-17.46 23.31-23.04s21.21-8.37 33.93-8.37c7.32 0 14.19 1.14 20.61 3.42 6.42 2.28 12.21 5.37 17.37 9.27 5.16 3.9 9.36 8.43 12.6 13.59l-16.92 10.8c-2.28-3.48-5.22-6.6-8.82-9.36-3.6-2.76-7.53-4.89-11.79-6.39-4.26-1.5-8.61-2.25-13.05-2.25-8.64 0-16.29 1.98-22.95 5.94s-11.91 9.39-15.75 16.29c-3.84 6.9-5.76 14.91-5.76 24.03s1.89 16.8 5.67 23.76c3.78 6.96 9.06 12.42 15.84 16.38 6.78 3.96 14.61 5.94 23.49 5.94 6.96 0 13.2-1.44 18.72-4.32 5.52-2.88 9.87-6.9 13.05-12.06 3.18-5.16 4.77-11.1 4.77-17.82l19.98-2.52c0 11.4-2.43 21.27-7.29 29.61-4.86 8.34-11.58 14.76-20.16 19.26-8.58 4.5-18.45 6.75-29.61 6.75zm6.84-51.48v-16.92h50.22v14.04l-11.16 2.88h-39.06zM1402.62 332.24c-9.12 0-17.16-2.01-24.12-6.03-6.96-4.02-12.42-9.57-16.38-16.65-3.96-7.08-5.94-15.24-5.94-24.48s1.95-17.4 5.85-24.48c3.9-7.08 9.33-12.63 16.29-16.65 6.96-4.02 14.88-6.03 23.76-6.03s17.16 2.01 24.12 6.03c6.96 4.02 12.39 9.57 16.29 16.65 3.9 7.08 5.85 15.24 5.85 24.48s-1.95 17.4-5.85 24.48c-3.9 7.08-9.3 12.63-16.2 16.65-6.9 4.02-14.79 6.03-23.67 6.03zm0-18.54c5.04 0 9.45-1.23 13.23-3.69 3.78-2.46 6.75-5.82 8.91-10.08s3.24-9.21 3.24-14.85-1.08-10.59-3.24-14.85-5.19-7.62-9.09-10.08c-3.9-2.46-8.37-3.69-13.41-3.69s-9.48 1.23-13.32 3.69-6.84 5.82-9 10.08-3.24 9.21-3.24 14.85 1.11 10.59 3.33 14.85c2.22 4.26 5.28 7.62 9.18 10.08 3.9 2.46 8.37 3.69 13.41 3.69zM1465.8 330.08v-126h20.16v126h-20.16zM1503.78 330.08v-14.94l47.88-58.14h-47.88v-16.92h73.26v14.76l-47.88 58.5h48.24v16.74h-73.62zM1624.2 332.24c-10.8 0-19.17-2.4-25.11-7.2-5.94-4.8-8.91-11.58-8.91-20.34 0-9.36 3.15-16.5 9.45-21.42 6.3-4.92 15.09-7.38 26.37-7.38h24.12v15.48h-17.64c-8.04 0-13.68 1.11-16.92 3.33-3.24 2.22-4.86 5.37-4.86 9.45 0 3.48 1.41 6.21 4.23 8.19 2.82 1.98 6.75 2.97 11.79 2.97 4.56 0 8.52-1.02 11.88-3.06 3.36-2.04 5.97-4.74 7.83-8.1 1.86-3.36 2.79-7.14 2.79-11.34h5.94c0 12.24-2.46 21.87-7.38 28.89s-12.78 10.53-23.58 10.53zm25.92-2.16l-.9-16.92v-29.34c0-6.12-.63-11.25-1.89-15.39-1.26-4.14-3.3-7.32-6.12-9.54-2.82-2.22-6.57-3.33-11.25-3.33-4.32 0-8.1.9-11.34 2.7-3.24 1.8-6 4.62-8.28 8.46l-17.64-6.48c1.92-3.96 4.47-7.65 7.65-11.07 3.18-3.42 7.2-6.15 12.06-8.19 4.86-2.04 10.71-3.06 17.55-3.06 8.76 0 16.08 1.71 21.96 5.13 5.88 3.42 10.23 8.31 13.05 14.67 2.82 6.36 4.23 14.04 4.23 23.04l-.54 49.32h-18.54zM1689.54 330.08v-90h20.16v90h-20.16zm13.32-47.88c0-9.72 1.86-17.7 5.58-23.94 3.72-6.24 8.55-10.89 14.49-13.95 5.94-3.06 12.15-4.59 18.63-4.59v19.26c-5.52 0-10.71.75-15.57 2.25-4.86 1.5-8.79 3.93-11.79 7.29s-4.5 7.8-4.5 13.32l-6.84.36zM129.05 447.08v-44.86h-16.06v-5.54h38.16v5.54h-16.06v44.86h-6.05zM156.91 447.08v-50.4h5.76v50.4h-5.76zm25.34-18.43c0-3.55-.42-6.26-1.26-8.14-.84-1.87-1.98-3.16-3.42-3.85-1.44-.7-3.07-1.04-4.9-1.04-3.17 0-5.63 1.12-7.38 3.35s-2.63 5.39-2.63 9.47h-2.81c0-3.79.56-7.06 1.69-9.79 1.13-2.74 2.75-4.82 4.86-6.26 2.11-1.44 4.66-2.16 7.63-2.16 2.78 0 5.23.56 7.34 1.69 2.11 1.13 3.76 2.92 4.93 5.36 1.18 2.45 1.74 5.66 1.69 9.65v1.73h-5.76zm0 18.43v-18.43h5.76v18.43h-5.76zM200.33 402.73c-.96 0-1.8-.36-2.52-1.08-.72-.72-1.08-1.56-1.08-2.52s.36-1.86 1.08-2.56c.72-.7 1.56-1.04 2.52-1.04s1.86.35 2.56 1.04c.69.7 1.04 1.55 1.04 2.56s-.35 1.8-1.04 2.52c-.7.72-1.55 1.08-2.56 1.08zm-2.95 44.35v-36h5.76v36h-5.76zM226.25 447.94c-2.64 0-4.94-.4-6.91-1.19-1.97-.79-3.61-1.84-4.93-3.13-1.32-1.3-2.27-2.71-2.84-4.25l5.04-2.09c.82 1.63 2.04 2.95 3.67 3.96 1.63 1.01 3.43 1.51 5.4 1.51 2.26 0 4.15-.44 5.69-1.33 1.54-.89 2.3-2.15 2.3-3.78 0-1.49-.56-2.69-1.69-3.6-1.13-.91-2.8-1.66-5-2.23l-3.46-.94c-3.26-.86-5.81-2.17-7.63-3.92-1.82-1.75-2.74-3.73-2.74-5.94 0-3.41 1.12-6.06 3.35-7.96 2.23-1.9 5.56-2.84 9.97-2.84 2.11 0 4.03.31 5.76.94 1.73.62 3.21 1.5 4.46 2.63s2.16 2.46 2.74 4l-5.04 2.23c-.62-1.63-1.66-2.81-3.1-3.53-1.44-.72-3.19-1.08-5.26-1.08-2.21 0-3.94.47-5.18 1.4-1.25.94-1.87 2.24-1.87 3.92 0 .96.52 1.86 1.55 2.7 1.03.84 2.56 1.52 4.57 2.05l3.6.94c2.35.58 4.32 1.43 5.9 2.56 1.58 1.13 2.78 2.41 3.6 3.85a9.167 9.167 0 011.22 4.61c0 2.16-.58 4.03-1.73 5.62-1.15 1.58-2.71 2.8-4.68 3.64-1.97.84-4.22 1.26-6.77 1.26zM268.15 402.73c-.96 0-1.8-.36-2.52-1.08-.72-.72-1.08-1.56-1.08-2.52s.36-1.86 1.08-2.56c.72-.7 1.56-1.04 2.52-1.04s1.86.35 2.56 1.04c.69.7 1.04 1.55 1.04 2.56s-.35 1.8-1.04 2.52c-.7.72-1.55 1.08-2.56 1.08zm-2.95 44.35v-36h5.76v36h-5.76zM294.07 447.94c-2.64 0-4.94-.4-6.91-1.19-1.97-.79-3.61-1.84-4.93-3.13-1.32-1.3-2.27-2.71-2.84-4.25l5.04-2.09c.82 1.63 2.04 2.95 3.67 3.96 1.63 1.01 3.43 1.51 5.4 1.51 2.26 0 4.15-.44 5.69-1.33 1.54-.89 2.3-2.15 2.3-3.78 0-1.49-.56-2.69-1.69-3.6-1.13-.91-2.8-1.66-5-2.23l-3.46-.94c-3.26-.86-5.81-2.17-7.63-3.92-1.82-1.75-2.74-3.73-2.74-5.94 0-3.41 1.12-6.06 3.35-7.96 2.23-1.9 5.56-2.84 9.97-2.84 2.11 0 4.03.31 5.76.94 1.73.62 3.21 1.5 4.46 2.63s2.16 2.46 2.74 4l-5.04 2.23c-.62-1.63-1.66-2.81-3.1-3.53-1.44-.72-3.19-1.08-5.26-1.08-2.21 0-3.94.47-5.18 1.4-1.25.94-1.87 2.24-1.87 3.92 0 .96.52 1.86 1.55 2.7 1.03.84 2.56 1.52 4.57 2.05l3.6.94c2.35.58 4.32 1.43 5.9 2.56 1.58 1.13 2.78 2.41 3.6 3.85a9.167 9.167 0 011.22 4.61c0 2.16-.58 4.03-1.73 5.62-1.15 1.58-2.71 2.8-4.68 3.64-1.97.84-4.22 1.26-6.77 1.26zM332.66 447.08v-36h5.4l.29 5.04c1.1-1.92 2.52-3.38 4.25-4.39s3.74-1.51 6.05-1.51c2.88 0 5.34.67 7.38 2.02 2.04 1.34 3.52 3.38 4.43 6.12 1.01-2.64 2.48-4.66 4.43-6.05 1.94-1.39 4.26-2.09 6.95-2.09 4.03 0 7.21 1.34 9.54 4.03 2.33 2.69 3.47 6.77 3.42 12.24v20.59h-5.76v-18.43c0-3.55-.37-6.26-1.12-8.14-.74-1.87-1.74-3.16-2.99-3.85-1.25-.7-2.69-1.04-4.32-1.04-2.83 0-5.04 1.12-6.62 3.35s-2.38 5.39-2.38 9.47v18.65h-5.76v-18.43c0-3.55-.37-6.26-1.12-8.14-.74-1.87-1.75-3.16-3.02-3.85-1.27-.7-2.72-1.04-4.36-1.04-2.78 0-4.97 1.12-6.55 3.35s-2.38 5.39-2.38 9.47v18.65h-5.76zM404.45 447.08l-15.55-36h6.12l13.39 32.04 1.73 3.96h-5.69zm-7.92 15.26c-.91 0-1.97-.18-3.17-.54-1.2-.36-2.47-.83-3.82-1.4l2.16-4.82c1.1.48 2.08.84 2.92 1.08.84.24 1.5.36 1.98.36 1.3 0 2.36-.35 3.2-1.04.84-.7 1.55-1.69 2.12-2.99l4.1-9.79 13.32-32.11h6.19l-17.28 41.04c-.91 2.11-1.86 3.94-2.84 5.47-.98 1.54-2.17 2.71-3.56 3.53-1.39.82-3.17 1.22-5.33 1.22zM473.28 447.94c-5.14 0-9.67-1.12-13.61-3.35-3.94-2.23-7.02-5.3-9.25-9.22-2.23-3.91-3.35-8.39-3.35-13.43s1.12-9.66 3.35-13.57 5.32-6.98 9.25-9.22c3.94-2.23 8.47-3.35 13.61-3.35 2.69 0 5.3.44 7.85 1.33 2.54.89 4.87 2.1 6.98 3.64 2.11 1.54 3.82 3.29 5.11 5.26l-4.82 3.31c-.96-1.54-2.26-2.92-3.89-4.14a19.552 19.552 0 00-5.36-2.84c-1.94-.67-3.9-1.01-5.87-1.01-3.89 0-7.34.88-10.37 2.63-3.02 1.75-5.4 4.16-7.13 7.24-1.73 3.07-2.59 6.65-2.59 10.73s.85 7.45 2.56 10.55c1.7 3.1 4.08 5.53 7.13 7.31 3.05 1.78 6.52 2.66 10.4 2.66 3.26 0 6.16-.68 8.68-2.05 2.52-1.37 4.5-3.26 5.94-5.69 1.44-2.42 2.16-5.22 2.16-8.39l5.83-.43c0 4.42-.96 8.27-2.88 11.56-1.92 3.29-4.58 5.86-7.99 7.7-3.41 1.85-7.32 2.77-11.74 2.77zm4.39-21.31v-5.26h18.22v4.75l-2.88.5h-15.34zM506.76 402.73c-.96 0-1.8-.36-2.52-1.08-.72-.72-1.08-1.56-1.08-2.52s.36-1.86 1.08-2.56c.72-.7 1.56-1.04 2.52-1.04s1.86.35 2.56 1.04c.69.7 1.04 1.55 1.04 2.56s-.35 1.8-1.04 2.52c-.7.72-1.55 1.08-2.56 1.08zm-2.95 44.35v-36h5.76v36h-5.76zM516.33 416.19v-5.11h22.82v5.11h-22.82zm17.28 31.75c-3.5 0-6.22-.91-8.14-2.74-1.92-1.82-2.88-4.39-2.88-7.7v-37.66h5.76v37.08c0 1.82.49 3.23 1.48 4.21.98.98 2.36 1.48 4.14 1.48.58 0 1.14-.08 1.69-.25.55-.17 1.28-.59 2.2-1.26l2.23 4.68c-1.25.82-2.38 1.38-3.38 1.69-1.01.31-2.04.47-3.1.47zM548.88 447.08v-50.4H555v50.4h-6.12zm5.4-23.18v-5.54h30.53v5.54h-30.53zm29.23 23.18v-50.4h6.05v50.4h-6.05zM600.29 429.51v-18.43h5.76v18.43h-5.76zm5.76 0c0 3.55.41 6.26 1.22 8.14.82 1.87 1.96 3.16 3.42 3.85 1.46.7 3.11 1.04 4.93 1.04 3.12 0 5.56-1.13 7.31-3.38 1.75-2.26 2.63-5.4 2.63-9.43h2.81c0 3.79-.55 7.06-1.66 9.79-1.1 2.74-2.7 4.82-4.79 6.26-2.09 1.44-4.64 2.16-7.67 2.16-2.78 0-5.23-.56-7.34-1.69-2.11-1.13-3.74-2.93-4.9-5.4-1.15-2.47-1.73-5.68-1.73-9.61v-1.73h5.76zm19.87 17.57l-.36-6.62v-29.38h5.76v36h-5.4zM641.33 447.08v-50.4h5.76v43.7l-.29 6.7h-5.47zm17.93.86c-3.02 0-5.68-.79-7.96-2.38-2.28-1.58-4.04-3.8-5.29-6.66-1.25-2.86-1.87-6.13-1.87-9.83s.62-7.03 1.87-9.86c1.25-2.83 3.01-5.04 5.29-6.62 2.28-1.58 4.93-2.38 7.96-2.38 3.22 0 6.05.79 8.5 2.38 2.45 1.58 4.36 3.79 5.72 6.62 1.37 2.83 2.05 6.12 2.05 9.86s-.68 6.97-2.05 9.83c-1.37 2.86-3.28 5.08-5.72 6.66-2.45 1.58-5.28 2.38-8.5 2.38zm-1.3-5.26c2.26 0 4.26-.58 6.01-1.73s3.14-2.75 4.18-4.79c1.03-2.04 1.55-4.4 1.55-7.09s-.49-4.99-1.48-7.06c-.98-2.06-2.35-3.67-4.1-4.82-1.75-1.15-3.78-1.73-6.08-1.73-2.11 0-4 .58-5.65 1.73-1.66 1.15-2.95 2.75-3.89 4.79s-1.4 4.4-1.4 7.09.47 4.99 1.4 7.06c.94 2.06 2.22 3.67 3.85 4.82 1.63 1.15 3.5 1.73 5.62 1.73zM701.52 461.48v-50.4h5.4l.36 6.62v43.78h-5.76zm17.93-13.54c-3.02 0-5.68-.79-7.96-2.38-2.28-1.58-4.04-3.8-5.29-6.66-1.25-2.86-1.87-6.13-1.87-9.83s.62-7.03 1.87-9.86c1.25-2.83 3.01-5.04 5.29-6.62 2.28-1.58 4.93-2.38 7.96-2.38 3.22 0 6.05.79 8.5 2.38 2.45 1.58 4.36 3.79 5.72 6.62 1.37 2.83 2.05 6.12 2.05 9.86s-.68 6.97-2.05 9.83c-1.37 2.86-3.28 5.08-5.72 6.66-2.45 1.58-5.28 2.38-8.5 2.38zm-1.3-5.26c2.26 0 4.26-.58 6.01-1.73s3.14-2.75 4.18-4.79c1.03-2.04 1.55-4.4 1.55-7.09s-.49-4.99-1.48-7.06c-.98-2.06-2.35-3.67-4.1-4.82-1.75-1.15-3.78-1.73-6.08-1.73-2.11 0-4 .58-5.65 1.73-1.66 1.15-2.95 2.75-3.89 4.79s-1.4 4.4-1.4 7.09.47 4.99 1.4 7.06c.94 2.06 2.22 3.67 3.85 4.82 1.63 1.15 3.5 1.73 5.62 1.73zM743.64 447.08v-36h5.76v36h-5.76zm3.17-19.51c0-3.89.74-7.04 2.23-9.47 1.49-2.42 3.4-4.22 5.72-5.4 2.33-1.18 4.79-1.76 7.38-1.76v5.4c-2.11 0-4.14.35-6.08 1.04-1.94.7-3.54 1.84-4.79 3.42-1.25 1.58-1.87 3.74-1.87 6.48l-2.59.29zM783.89 447.94c-3.55 0-6.68-.8-9.4-2.41-2.71-1.61-4.84-3.83-6.37-6.66-1.54-2.83-2.3-6.1-2.3-9.79s.76-6.96 2.27-9.79c1.51-2.83 3.62-5.05 6.34-6.66 2.71-1.61 5.82-2.41 9.32-2.41s6.61.8 9.32 2.41 4.82 3.83 6.34 6.66c1.51 2.83 2.27 6.1 2.27 9.79s-.76 6.96-2.27 9.79c-1.51 2.83-3.61 5.05-6.3 6.66-2.69 1.61-5.76 2.41-9.22 2.41zm-.07-5.33c2.35 0 4.43-.58 6.23-1.73 1.8-1.15 3.21-2.75 4.25-4.79 1.03-2.04 1.55-4.38 1.55-7.02s-.52-4.98-1.55-7.02c-1.03-2.04-2.46-3.64-4.28-4.79-1.82-1.15-3.94-1.73-6.34-1.73s-4.43.58-6.23 1.73c-1.8 1.15-3.22 2.74-4.25 4.75-1.03 2.02-1.55 4.37-1.55 7.06s.52 4.98 1.55 7.02c1.03 2.04 2.47 3.64 4.32 4.79s3.95 1.73 6.3 1.73zM806.57 416.05v-4.97h22.82v4.97h-22.82zm6.62 31.03v-40.1c0-3.74.88-6.56 2.63-8.46 1.75-1.9 4.43-2.84 8.03-2.84.96 0 2.04.17 3.24.5 1.2.34 2.47.82 3.82 1.44l-2.16 4.54c-1.1-.43-2.04-.77-2.81-1.01s-1.42-.36-1.94-.36c-1.68 0-2.94.54-3.78 1.62-.84 1.08-1.26 2.75-1.26 5v39.67h-5.76zM839.4 402.73c-.96 0-1.8-.36-2.52-1.08-.72-.72-1.08-1.56-1.08-2.52s.36-1.86 1.08-2.56c.72-.7 1.56-1.04 2.52-1.04s1.86.35 2.56 1.04c.69.7 1.04 1.55 1.04 2.56s-.35 1.8-1.04 2.52c-.7.72-1.55 1.08-2.56 1.08zm-2.95 44.35v-36h5.76v36h-5.76zM852.72 447.08v-50.4h5.76v50.4h-5.76zM884.25 447.94c-3.5 0-6.6-.8-9.29-2.41-2.69-1.61-4.79-3.83-6.3-6.66-1.51-2.83-2.27-6.1-2.27-9.79s.76-6.96 2.27-9.79c1.51-2.83 3.6-5.05 6.26-6.66 2.66-1.61 5.72-2.41 9.18-2.41s6.26.83 8.71 2.48c2.45 1.66 4.34 3.97 5.69 6.95 1.34 2.98 2.02 6.48 2.02 10.51h-29.74l1.44-1.22c0 2.88.52 5.35 1.55 7.42 1.03 2.06 2.48 3.64 4.36 4.72 1.87 1.08 4.01 1.62 6.41 1.62 2.54 0 4.69-.6 6.44-1.8 1.75-1.2 3.11-2.78 4.07-4.75l4.97 2.52c-.91 1.87-2.12 3.5-3.64 4.9-1.51 1.39-3.29 2.47-5.33 3.24s-4.31 1.15-6.8 1.15zm-11.66-21.46l-1.51-1.15h24.84l-1.51 1.22c0-2.3-.46-4.3-1.37-5.98-.91-1.68-2.14-2.98-3.67-3.89-1.54-.91-3.31-1.37-5.33-1.37s-3.83.46-5.58 1.37c-1.75.91-3.17 2.2-4.25 3.85-1.08 1.66-1.62 3.64-1.62 5.94zM2506.91 57.33l-3.67-3.67 32.33-32.33 3.67 3.67-32.33 32.33zm5.4-32.18v-5.33h28.51l-2.16 5.33h-26.35zm23.11 23.18l.07-26.42 5.33-2.09v28.51h-5.4z"/></svg>